<?xml version="1.0" standalone="no"?>
<!DOCTYPE svg PUBLIC "-//W3C//DTD SVG 1.1//EN" "http://www.w3.org/Graphics/SVG/1.1/DTD/svg11.dtd">
<svg xmlns:xlink="http://www.w3.org/1999/xlink" width="37.07ex" height="2.843ex" style="vertical-align: -0.838ex;" viewBox="0 -863.1 15960.8 1223.9" xmlns="http://www.w3.org/2000/svg">
<defs>
<path stroke-width="10" id="E1-MJMAIN-44" d="M130 622Q123 629 119 631T103 634T60 637H27V683H228Q399 682 419 682T461 676Q504 667 546 641T626 573T685 470T708 336Q708 210 634 116T442 3Q429 1 228 0H27V46H60Q102 47 111 49T130 61V622ZM593 338Q593 439 571 501T493 602Q439 637 355 637H322H294Q238 637 234 628Q231 624 231 344Q231 62 232 59Q233 49 248 48T339 46H350Q456 46 515 95Q561 133 577 191T593 338Z"></path>
<path stroke-width="10" id="E1-MJMAIN-45" d="M128 619Q121 626 117 628T101 631T58 634H25V680H597V676Q599 670 611 560T625 444V440H585V444Q584 447 582 465Q578 500 570 526T553 571T528 601T498 619T457 629T411 633T353 634Q266 634 251 633T233 622Q233 622 233 621Q232 619 232 497V376H286Q359 378 377 385Q413 401 416 469Q416 471 416 473V493H456V213H416V233Q415 268 408 288T383 317T349 328T297 330Q290 330 286 330H232V196V114Q232 57 237 52Q243 47 289 47H340H391Q428 47 452 50T505 62T552 92T584 146Q594 172 599 200T607 247T612 270V273H652V270Q651 267 632 137T610 3V0H25V46H58Q100 47 109 49T128 61V619Z"></path>
<path stroke-width="10" id="E1-MJMAIN-53" d="M55 507Q55 590 112 647T243 704H257Q342 704 405 641L426 672Q431 679 436 687T446 700L449 704Q450 704 453 704T459 705H463Q466 705 472 699V462L466 456H448Q437 456 435 459T430 479Q413 605 329 646Q292 662 254 662Q201 662 168 626T135 542Q135 508 152 480T200 435Q210 431 286 412T370 389Q427 367 463 314T500 191Q500 110 448 45T301 -21Q245 -21 201 -4T140 27L122 41Q118 36 107 21T87 -7T78 -21Q76 -22 68 -22H64Q61 -22 55 -16V101Q55 220 56 222Q58 227 76 227H89Q95 221 95 214Q95 182 105 151T139 90T205 42T305 24Q352 24 386 62T420 155Q420 198 398 233T340 281Q284 295 266 300Q261 301 239 306T206 314T174 325T141 343T112 367T85 402Q55 451 55 507Z"></path>
<path stroke-width="10" id="E1-MJMAIN-2D" d="M11 179V252H277V179H11Z"></path>
<path stroke-width="10" id="E1-MJMAIN-58" d="M270 0Q252 3 141 3Q46 3 31 0H23V46H40Q129 50 161 88Q165 94 244 216T324 339Q324 341 235 480T143 622Q133 631 119 634T57 637H37V683H46Q64 680 172 680Q297 680 318 683H329V637H324Q307 637 286 632T263 621Q263 618 322 525T384 431Q385 431 437 511T489 593Q490 595 490 599Q490 611 477 622T436 637H428V683H437Q455 680 566 680Q661 680 676 683H684V637H667Q585 634 551 599Q548 596 478 491Q412 388 412 387Q412 385 514 225T620 62Q628 53 642 50T695 46H726V0H717Q699 3 591 3Q466 3 445 0H434V46H440Q454 46 476 51T499 64Q499 67 463 124T390 238L353 295L350 292Q348 290 343 283T331 265T312 236T286 195Q219 88 218 84Q218 70 234 59T272 46H280V0H270Z"></path>
<path stroke-width="10" id="E1-MJMAIN-28" d="M94 250Q94 319 104 381T127 488T164 576T202 643T244 695T277 729T302 750H315H319Q333 750 333 741Q333 738 316 720T275 667T226 581T184 443T167 250T184 58T225 -81T274 -167T316 -220T333 -241Q333 -250 318 -250H315H302L274 -226Q180 -141 137 -14T94 250Z"></path>
<path stroke-width="10" id="E1-MJMATHI-4D" d="M289 629Q289 635 232 637Q208 637 201 638T194 648Q194 649 196 659Q197 662 198 666T199 671T201 676T203 679T207 681T212 683T220 683T232 684Q238 684 262 684T307 683Q386 683 398 683T414 678Q415 674 451 396L487 117L510 154Q534 190 574 254T662 394Q837 673 839 675Q840 676 842 678T846 681L852 683H948Q965 683 988 683T1017 684Q1051 684 1051 673Q1051 668 1048 656T1045 643Q1041 637 1008 637Q968 636 957 634T939 623Q936 618 867 340T797 59Q797 55 798 54T805 50T822 48T855 46H886Q892 37 892 35Q892 19 885 5Q880 0 869 0Q864 0 828 1T736 2Q675 2 644 2T609 1Q592 1 592 11Q592 13 594 25Q598 41 602 43T625 46Q652 46 685 49Q699 52 704 61Q706 65 742 207T813 490T848 631L654 322Q458 10 453 5Q451 4 449 3Q444 0 433 0Q418 0 415 7Q413 11 374 317L335 624L267 354Q200 88 200 79Q206 46 272 46H282Q288 41 289 37T286 19Q282 3 278 1Q274 0 267 0Q265 0 255 0T221 1T157 2Q127 2 95 1T58 0Q43 0 39 2T35 11Q35 13 38 25T43 40Q45 46 65 46Q135 46 154 86Q158 92 223 354T289 629Z"></path>
<path stroke-width="10" id="E1-MJMAIN-29" d="M60 749L64 750Q69 750 74 750H86L114 726Q208 641 251 514T294 250Q294 182 284 119T261 12T224 -76T186 -143T145 -194T113 -227T90 -246Q87 -249 86 -250H74Q66 -250 63 -250T58 -247T55 -238Q56 -237 66 -225Q221 -64 221 250T66 725Q56 737 55 738Q55 746 60 749Z"></path>
<path stroke-width="10" id="E1-MJMAIN-3D" d="M56 347Q56 360 70 367H707Q722 359 722 347Q722 336 708 328L390 327H72Q56 332 56 347ZM56 153Q56 168 72 173H708Q722 163 722 153Q722 140 707 133H70Q56 140 56 153Z"></path>
<path stroke-width="10" id="E1-MJMATHI-4B" d="M285 628Q285 635 228 637Q205 637 198 638T191 647Q191 649 193 661Q199 681 203 682Q205 683 214 683H219Q260 681 355 681Q389 681 418 681T463 682T483 682Q500 682 500 674Q500 669 497 660Q496 658 496 654T495 648T493 644T490 641T486 639T479 638T470 637T456 637Q416 636 405 634T387 623L306 305Q307 305 490 449T678 597Q692 611 692 620Q692 635 667 637Q651 637 651 648Q651 650 654 662T659 677Q662 682 676 682Q680 682 711 681T791 680Q814 680 839 681T869 682Q889 682 889 672Q889 650 881 642Q878 637 862 637Q787 632 726 586Q710 576 656 534T556 455L509 418L518 396Q527 374 546 329T581 244Q656 67 661 61Q663 59 666 57Q680 47 717 46H738Q744 38 744 37T741 19Q737 6 731 0H720Q680 3 625 3Q503 3 488 0H478Q472 6 472 9T474 27Q478 40 480 43T491 46H494Q544 46 544 71Q544 75 517 141T485 216L427 354L359 301L291 248L268 155Q245 63 245 58Q245 51 253 49T303 46H334Q340 37 340 35Q340 19 333 5Q328 0 317 0Q314 0 280 1T180 2Q118 2 85 2T49 1Q31 1 31 11Q31 13 34 25Q38 41 42 43T65 46Q92 46 125 49Q139 52 144 61Q147 65 216 339T285 628Z"></path>
<path stroke-width="10" id="E1-MJMAIN-32" d="M109 429Q82 429 66 447T50 491Q50 562 103 614T235 666Q326 666 387 610T449 465Q449 422 429 383T381 315T301 241Q265 210 201 149L142 93L218 92Q375 92 385 97Q392 99 409 186V189H449V186Q448 183 436 95T421 3V0H50V19V31Q50 38 56 46T86 81Q115 113 136 137Q145 147 170 174T204 211T233 244T261 278T284 308T305 340T320 369T333 401T340 431T343 464Q343 527 309 573T212 619Q179 619 154 602T119 569T109 550Q109 549 114 549Q132 549 151 535T170 489Q170 464 154 447T109 429Z"></path>
<path stroke-width="10" id="E1-MJMAIN-2295" d="M56 250Q56 394 156 488T384 583Q530 583 626 485T722 250Q722 110 625 14T390 -83Q249 -83 153 14T56 250ZM364 542Q308 539 251 509T148 418T96 278V270H369V542H364ZM681 278Q675 338 650 386T592 462T522 509T458 535T412 542H409V270H681V278ZM96 222Q104 150 139 95T219 12T302 -29T366 -42H369V230H96V222ZM681 222V230H409V-42H412Q429 -42 456 -36T521 -10T590 37T649 113T681 222Z"></path>
<path stroke-width="10" id="E1-MJMAIN-31" d="M213 578L200 573Q186 568 160 563T102 556H83V602H102Q149 604 189 617T245 641T273 663Q275 666 285 666Q294 666 302 660V361L303 61Q310 54 315 52T339 48T401 46H427V0H416Q395 3 257 3Q121 3 100 0H88V46H114Q136 46 152 46T177 47T193 50T201 52T207 57T213 61V578Z"></path>
</defs>
<g stroke="currentColor" fill="currentColor" stroke-width="0" transform="matrix(1 0 0 -1 0 0)">
 <use xlink:href="#E1-MJMAIN-44"></use>
 <use xlink:href="#E1-MJMAIN-45" x="769" y="0"></use>
 <use xlink:href="#E1-MJMAIN-53" x="1455" y="0"></use>
 <use xlink:href="#E1-MJMAIN-2D" x="2016" y="0"></use>
 <use xlink:href="#E1-MJMAIN-58" x="2354" y="0"></use>
 <use xlink:href="#E1-MJMAIN-28" x="3109" y="0"></use>
 <use xlink:href="#E1-MJMATHI-4D" x="3503" y="0"></use>
 <use xlink:href="#E1-MJMAIN-29" x="4559" y="0"></use>
 <use xlink:href="#E1-MJMAIN-3D" x="5230" y="0"></use>
<g transform="translate(6291,0)">
 <use xlink:href="#E1-MJMATHI-4B" x="0" y="0"></use>
 <use transform="scale(0.707)" xlink:href="#E1-MJMAIN-32" x="1207" y="-213"></use>
</g>
 <use xlink:href="#E1-MJMAIN-2295" x="7824" y="0"></use>
<g transform="translate(8830,0)">
 <use xlink:href="#E1-MJMAIN-44"></use>
 <use xlink:href="#E1-MJMAIN-45" x="769" y="0"></use>
 <use xlink:href="#E1-MJMAIN-53" x="1455" y="0"></use>
 <use transform="scale(0.707)" xlink:href="#E1-MJMATHI-4B" x="2851" y="-213"></use>
</g>
 <use xlink:href="#E1-MJMAIN-28" x="11578" y="0"></use>
 <use xlink:href="#E1-MJMATHI-4D" x="11972" y="0"></use>
 <use xlink:href="#E1-MJMAIN-2295" x="13250" y="0"></use>
<g transform="translate(14255,0)">
 <use xlink:href="#E1-MJMATHI-4B" x="0" y="0"></use>
 <use transform="scale(0.707)" xlink:href="#E1-MJMAIN-31" x="1207" y="-213"></use>
</g>
 <use xlink:href="#E1-MJMAIN-29" x="15566" y="0"></use>
</g>
</svg>